:SAMPLES-PER-SECOND 30
:FULLY-SPECIFIED
:DEGREES
127
root  2.78893 37.9893 7.09756 -11.5806 -68.465 13.0881
RightUpLeg  -30.9604 8.59879 -2.65661
RightLeg  44.2643 -2.78501 -3.03232
RightFoot  -3.36812 -1.05422 14.9232
RightToes  5.82063e-011 0 -3.6325e-017
Spine  35.1872 -2.25819 -1.8881
Spine1  -4.12384 -3.6427 7.91782
HEad  -24.2629 -5.81284 -6.05024
LeftShoulder1  1.28676 -3.90513 -10.0718
LeftArm  -20.6954 4.72486 -38.6973
LeftForeArm  57.8791 -78.5795 -65.3918
LeftHand  -0.119252 4.99176 38.1395
RightShoulder  1.2491 2.35832 14.5024
RightArm  -39.2702 -24.4772 23.5363
RightForeArm  -15.4394 67.3403 30.9184
RightHand  -2.32852 3.25229 -30.8602
LeftUpLeg  -32.1686 -2.10548 -5.33924
LeftLeg  49.8508 18.39 22.2959
LeftFoot  0.750205 1.04702 -9.84976
LeftToes  3.99265e-010 -1.33173e-010 6.75004e-011
128
root  2.89267 38.5655 6.95327 -10.7495 -77.4454 13.5536
RightUpLeg  -32.0921 7.60337 -1.04903
RightLeg  43.4074 -9.38273 -9.7765
RightFoot  -0.798516 -1.10116 12.0353
RightToes  5.82063e-011 0 -3.6325e-017
Spine  35.9274 -1.29424 -0.422819
Spine1  -4.84258 -1.45091 3.80481
HEad  -25.0502 -1.85669 -6.70608
LeftShoulder1  1.26921 -3.25007 -11.6409
LeftArm  -27.8329 15.2671 -27.8075
LeftForeArm  25.3182 -73.478 -41.3125
LeftHand  -0.0570768 5.17733 42.5984
RightShoulder  1.27005 2.23246 15.4165
RightArm  -41.78 -27.7458 21.2591
RightForeArm  -26.5919 61.2586 23.4192
RightHand  -2.80929 3.94492 -34.2447
LeftUpLeg  -33.6466 -4.8133 -3.8431
LeftLeg  48.8025 13.2638 16.0931
LeftFoot  -3.1952 0.867144 -12.2369
LeftToes  3.99265e-010 -1.33173e-010 6.75004e-011
129
root  2.83766 38.5869 6.74044 -23.5085 -84.3639 27.1533
RightUpLeg  -33.6873 7.94529 -1.06606
RightLeg  48.2235 -19.0427 -21.6928
RightFoot  1.56445 -0.317397 2.87287
RightToes  5.82063e-011 0 -3.6325e-017
Spine  35.7808 -0.756837 -0.37925
Spine1  -4.30213 -0.718269 1.46039
HEad  -26.1708 2.35189 -7.92012
LeftShoulder1  1.18548 -2.5582 -12.4731
LeftArm  -31.9903 24.1693 -21.832
LeftForeArm  -0.0956618 -59.8344 -20.1662
LeftHand  0.769242 7.19765 45.1814
RightShoulder  1.34763 2.22553 16.9299
RightArm  -43.1867 -30.5031 22.3324
RightForeArm  -34.4538 53.6272 17.6344
RightHand  -2.88876 3.70597 -35.9772
LeftUpLeg  -34.63 -5.8039 -4.04092
LeftLeg  47.5985 3.66775 4.7508
LeftFoot  -6.46987 0.837249 -18.1339
LeftToes  3.99265e-010 -1.33173e-010 6.75004e-011
130
root  2.69203 38.1006 6.50056 -42.247 -89.6142 45.9485
RightUpLeg  -34.2638 7.28238 -1.89543
RightLeg  52.816 -21.4159 -27.548
RightFoot  2.80704 -0.0244824 0.297204
RightToes  5.82063e-011 0 -3.6325e-017
Spine  35.251 -0.346495 -0.996674
Spine1  -2.95961 -0.518212 0.579166
HEad  -27.26 6.51116 -9.66409
LeftShoulder1  1.08512 -2.02656 -12.5627
LeftArm  -35.0164 28.7044 -21.8032
LeftForeArm  -12.8143 -40.7972 -10.2746
LeftHand  1.8686 9.583 47.7387
RightShoulder  1.42004 2.27288 18.0882
RightArm  -43.4664 -32.0484 25.5962
RightForeArm  -39.4315 43.6676 12.7781
RightHand  -2.69968 2.7483 -37.4571
LeftUpLeg  -34.6286 -6.391 -4.88822
LeftLeg  47.2719 -2.28882 -2.23816
LeftFoot  -5.51593 1.12957 -21.566
LeftToes  3.99265e-010 -1.33173e-010 6.75004e-011
131
root  2.45379 37.3387 6.28923 -174.619 -84.6665 177.921
RightUpLeg  -33.3871 4.49292 -1.04147
RightLeg  53.0403 -16.7591 -22.6745
RightFoot  -1.09696 -0.516243 6.20484
RightToes  5.82063e-011 0 -3.6325e-017
Spine  34.7535 -0.0278422 -0.725012
Spine1  -1.95409 0.0944874 -0.458746
HEad  -27.5132 10.6839 -11.1173
LeftShoulder1  1.18619 -2.31088 -13.3885
LeftArm  -36.8815 30.2164 -24.9837
LeftForeArm  -21.2117 -23.6675 -5.81422
LeftHand  2.55255 10.8372 50.008
RightShoulder  1.4963 2.42312 18.806
RightArm  -41.9607 -32.364 29.5304
RightForeArm  -45.1024 31.7153 8.86625
RightHand  -2.321 1.30831 -39.0067
LeftUpLeg  -33.7741 -7.88186 -4.61085
LeftLeg  48.0566 -1.19979 -0.950686
LeftFoot  -6.49246 0.873271 -18.7004
LeftToes  3.99265e-010 -1.33173e-010 6.75004e-011
132
root  2.11314 36.2836 6.04026 168.253 -79.2399 -165.323
RightUpLeg  -32.9191 0.728207 1.57104
RightLeg  53.2897 -9.38463 -13.5318
RightFoot  -9.59617 -0.272948 11.4169
RightToes  5.82063e-011 0 -3.6325e-017
Spine  34.0565 0.465304 -0.124752
Spine1  -1.64556 1.05978 -1.3699
HEad  -27.0009 15.2504 -11.9911
LeftShoulder1  1.61537 -3.53263 -16.1649
LeftArm  -35.1811 31.3828 -29.1659
LeftForeArm  -27.4407 -13.839 -3.65652
LeftHand  2.32702 10.408 49.4112
RightShoulder  1.67305 2.88748 19.797
RightArm  -36.8787 -31.4386 33.1772
RightForeArm  -53.3095 20.8319 6.00276
RightHand  -1.58553 -0.822441 -38.98
LeftUpLeg  -33.71 -10.333 -2.99739
LeftLeg  52.3761 3.80987 5.90834
LeftFoot  -13.3618 -0.134243 -12.4855
LeftToes  3.99265e-010 -1.33173e-010 6.75004e-011
133
root  1.74431 35.043 5.69142 164.773 -73.4355 -162.613
RightUpLeg  -33.314 -2.45392 4.82437
RightLeg  56.9676 -3.7436 -6.63606
RightFoot  -17.923 0.454597 10.3162
RightToes  5.82063e-011 0 -3.6325e-017
Spine  33.0244 1.20504 0.0862029
Spine1  -0.936563 1.78403 -1.1519
HEad  -26.4497 20.2637 -12.3861
LeftShoulder1  2.19731 -4.74282 -20.2236
LeftArm  -32.9111 31.1497 -34.295
LeftForeArm  -28.9045 -9.93766 -3.72745
LeftHand  1.8398 9.82495 45.0734
RightShoulder  1.96893 3.61556 21.3826
RightArm  -28.67 -28.6926 36.9695
RightForeArm  -59.1359 12.8402 4.47633
RightHand  -0.827581 -2.86677 -37.1289
LeftUpLeg  -34.5164 -12.1334 -0.803231
LeftLeg  60.0759 6.97422 13.4286
LeftFoot  -21.314 -0.830471 -10.6084
LeftToes  3.99265e-010 -1.33173e-010 6.75004e-011
134
root  1.39551 33.9334 5.31677 161.694 -67.9833 -161.799
RightUpLeg  -32.3389 -4.77634 7.37984
RightLeg  62.1064 -0.582641 -1.74406
RightFoot  -23.7488 0.712164 7.93061
RightToes  5.82063e-011 0 -3.6325e-017
Spine  31.8379 1.68738 0.321979
Spine1  0.684895 2.12223 -0.820898
HEad  -25.3723 25.4321 -11.9196
LeftShoulder1  2.60782 -5.23908 -23.6117
LeftArm  -30.9471 26.0073 -39.9951
LeftForeArm  -27.4686 -6.50509 -4.95414
LeftHand  1.44923 9.74511 36.933
RightShoulder  2.25355 4.22696 22.9824
RightArm  -25.6947 -23.908 41.4805
RightForeArm  -53.2909 6.95031 6.11553
RightHand  -0.487261 -3.80661 -35.144
LeftUpLeg  -34.0814 -12.455 0.964267
LeftLeg  67.8976 6.61444 18.1218
LeftFoot  -25.2382 -1.5011 -13.5487
LeftToes  3.99265e-010 -1.33173e-010 6.75004e-011
135
root  1.00281 33.0664 4.99558 157.709 -63.1848 -161.378
RightUpLeg  -29.3231 -6.55694 8.77283
RightLeg  66.6735 1.75924 3.81995
RightFoot  -27.2228 0.904335 7.7881
RightToes  5.82063e-011 0 -3.6325e-017
Spine  30.7788 1.57502 1.34596
Spine1  2.44716 2.3365 -1.45296
HEad  -22.0814 30.4889 -10.099
LeftShoulder1  2.76269 -5.37871 -24.9317
LeftArm  -25.4175 16.1635 -45.4923
LeftForeArm  -25.4911 -2.596 -7.60933
LeftHand  0.74779 8.40913 27.8171
RightShoulder  2.39724 4.52853 23.7139
RightArm  -23.0982 -17.7356 46.698
RightForeArm  -45.7976 4.30104 8.11369
RightHand  -0.480851 -3.74191 -33.3034
LeftUpLeg  -31.6978 -12.1646 1.815
LeftLeg  74.298 5.33176 21.862
LeftFoot  -25.4696 -1.94033 -16.811
LeftToes  3.99265e-010 -1.33173e-010 6.75004e-011
136
root  0.564467 32.3907 4.71491 154.199 -59.1118 -161.293
RightUpLeg  -26.2332 -7.8794 9.497
RightLeg  70.6336 3.07747 8.86851
RightFoot  -28.5932 0.964999 7.63887
RightToes  5.82063e-011 0 -3.6325e-017
Spine  29.4004 1.35227 2.40499
Spine1  3.62341 2.42416 -1.79871
HEad  -16.3933 35.1299 -7.42858
LeftShoulder1  2.77954 -5.73174 -23.8922
LeftArm  -14.3228 5.99857 -51.0942
LeftForeArm  -23.2811 -4.71083 -11.1216
LeftHand  0.16812 6.2661 23.4013
RightShoulder  2.38735 4.65396 23.096
RightArm  -18.7038 -11.7827 51.08
RightForeArm  -40.9227 7.19221 9.89365
RightHand  -0.666649 -2.92319 -30.882
LeftUpLeg  -28.7807 -11.9903 1.98474
LeftLeg  79.2313 4.05458 25.9906
LeftFoot  -24.6167 -2.07543 -18.9396
LeftToes  3.99265e-010 -1.33173e-010 6.75004e-011
137
root  0.185336 31.8851 4.46462 152.373 -55.9204 -161.946
RightUpLeg  -24.6019 -8.87581 9.82793
RightLeg  74.2929 3.01213 11.0398
RightFoot  -27.9775 0.7055 6.1024
RightToes  5.82063e-011 0 -3.6325e-017
Spine  27.5081 1.49227 2.26681
Spine1  4.744 2.18684 -0.469312
HEad  -10.7654 39.0128 -5.29478
LeftShoulder1  2.63402 -6.1476 -20.9049
LeftArm  2.0455 -1.37913 -56.2384
LeftForeArm  -25.2566 -17.9372 -10.5573
LeftHand  -0.098004 4.9142 22.9957
RightShoulder  2.28276 4.72481 21.4719
RightArm  -9.75921 -7.20925 53.2077
RightForeArm  -40.2475 17.7897 9.64382
RightHand  -0.911275 -1.76108 -28.7187
LeftUpLeg  -26.5997 -11.9122 1.86814
LeftLeg  82.7781 2.5779 28.3099
LeftFoot  -23.789 -2.19531 -21.2241
LeftToes  3.99265e-010 -1.33173e-010 6.75004e-011
